# xmcd CD database file
#
# Track frame offsets:
#	150
#	64042
#	113078
#	171263
#	217409
#
# Disc length: 3706 seconds
#
# Revision: 3
# Processed by: cddbd v1.5.2PL0 Copyright (c) Steve Scherf et al.
# Submitted via: CDex 1.51
#
DISCID=490e7805
DTITLE=Levantis - Return to the Rainforest - Sounds and Music - 1
DYEAR=2005
DGENRE=New Age
TTITLE0=Amazon Rainforest - Part 1
TTITLE1=Amazon Rainforest - Part 2
TTITLE2=Amazon Rainforest - Part 3
TTITLE3=Amazon Rainforest - Part 4
TTITLE4=Amazon Rainforest - Part 5
EXTD=YEAR: 2005
EXTT0=
EXTT1=
EXTT2=
EXTT3=
EXTT4=
PLAYORDER=
